<?xml version="1.0" encoding="iso-8859-1"?>
<!-- Uploaded to: SVG Repo, www.svgrepo.com, Generator: SVG Repo Mixer Tools -->
<!DOCTYPE svg PUBLIC "-//W3C//DTD SVG 1.1//EN" "http://www.w3.org/Graphics/SVG/1.1/DTD/svg11.dtd">
<svg fill="#000000" version="1.1" id="Capa_1" xmlns="http://www.w3.org/2000/svg" xmlns:xlink="http://www.w3.org/1999/xlink" 
	 width="800px" height="800px" viewBox="0 0 249.412 249.412"
	 xml:space="preserve">
<g>
	<g>
		<path d="M238.512,75.974c0.877-5.312-2.375-8.113,0.67-12.802c0,0-11.07,0.183-10.875,11.192
			c-4.372-4.75-10.182-4.564-10.182-4.564c4.562,7.907,2.326,10.644,2.351,13.661c0.086,7.173,4.47,8.114,8.062,8.637
			c-0.384,0.387-0.658,0.893-0.719,1.458c-1.157,11.192-6.613,21.263-15.345,28.367c-8.731,7.084-19.692,10.36-30.896,9.222
			c-9.742-1.011-18.036-6.174-23.382-13.533c3.324,2.159,7.088,3.593,11.155,4.022c1.108,0.125,2.216,0.17,3.312,0.17
			c6.99,0,13.713-2.302,19.217-6.649c4.805-3.784,8.245-8.79,9.999-14.452c3.689-0.911,9.998-3.934,3.799-13.71
			c-1.193-1.903-4.013-5.931-4.201-11.106c0,0-16.002,17.558-4.604,23.93c-1.51,4.46-4.262,8.418-8.099,11.448
			c-5.334,4.217-12.074,6.15-18.913,5.432c-5.358-0.561-10.192-3.105-13.603-7.183c-2.983-3.559-4.457-7.949-4.421-12.495
			c0.024-0.767,0.036-1.534,0.122-2.301c0-0.012,0-0.024,0-0.049c1.132-8.001,8.622-13.688,16.977-12.888
			c3.251,0.347,6.174,1.918,8.208,4.403c1.937,2.398,2.825,5.355,2.509,8.378c-0.244,2.314-1.395,4.409-3.252,5.855
			c-1.888,1.495-4.263,2.152-6.686,1.939c-1.425-0.179-2.606,0.853-2.74,2.208c-0.14,1.385,0.858,2.594,2.217,2.737
			c3.751,0.386,7.392-0.667,10.29-2.963c2.936-2.313,4.75-5.611,5.127-9.276c0.451-4.323-0.828-8.598-3.604-12.023
			c-2.874-3.541-6.979-5.748-11.569-6.223c-7.965-0.853-15.271,2.962-19.339,9.124c-3.568-10.668-13.53-18.438-25.386-18.438
			c-11.853,0-21.824,7.77-25.383,18.438c-4.067-6.162-11.387-9.977-19.342-9.124c-4.585,0.475-8.698,2.682-11.566,6.223
			c-2.777,3.425-4.062,7.682-3.611,12.023c0.381,3.665,2.208,6.963,5.13,9.276c2.908,2.29,6.543,3.361,10.291,2.963
			c1.37-0.144,2.362-1.364,2.219-2.737c-0.143-1.367-1.349-2.402-2.737-2.208c-2.427,0.213-4.801-0.435-6.686-1.939
			c-1.863-1.446-3.017-3.541-3.261-5.867c-0.311-2.987,0.582-5.968,2.518-8.366c2.034-2.484,4.953-4.056,8.208-4.403
			c8.431-0.779,15.844,4.886,16.971,12.888c0,0.012-0.006,0.024,0,0.049c0.082,0.767,0.094,1.535,0.125,2.301
			c0.04,4.546-1.44,8.942-4.427,12.495c-3.404,4.077-8.235,6.622-13.606,7.183c-6.851,0.718-13.579-1.215-18.916-5.432
			c-3.836-3.029-6.58-6.987-8.093-11.448c11.402-6.366-4.604-23.93-4.604-23.93c-0.191,5.176-3.005,9.21-4.208,11.106
			c-6.199,9.776,0.119,12.799,3.803,13.71c1.76,5.663,5.194,10.668,10.001,14.452c5.499,4.348,12.215,6.649,19.205,6.649
			c1.096,0,2.208-0.076,3.316-0.17c4.074-0.399,7.833-1.863,11.161-4.006c-5.355,7.343-13.649,12.507-23.382,13.518
			c-11.192,1.157-22.158-2.138-30.902-9.222c-8.735-7.104-14.185-17.175-15.345-28.367c-0.061-0.584-0.341-1.072-0.715-1.458
			c3.596-0.523,7.98-1.458,8.056-8.637c0.031-3.017-2.213-5.772,2.357-13.661c0,0-5.812-0.167-10.181,4.564
			c0.198-11.009-10.875-11.192-10.875-11.192c3.048,4.689-0.207,7.49,0.673,12.802C5.283,73.125,0,75.17,0,75.17
			c6.933,5.916,5.736,9.265,6.765,12.09c2.387,6.516,6.628,6.184,10.126,5.517c-0.186,0.399-0.305,0.831-0.262,1.291
			c1.297,12.52,7.396,23.781,17.166,31.725c8.479,6.881,18.837,10.547,29.612,10.547c1.647,0,3.3-0.086,4.95-0.256
			c4.509-0.475,8.729-1.742,12.596-3.605c-0.597,1.767-0.978,3.617-0.978,5.542c0,7.928,6.439,14.37,14.364,14.37
			c6.616,0,11.999-5.364,11.999-11.996c0-0.889-0.487-1.619-1.172-2.07c-0.731-1.687-2.42-2.898-4.39-2.898
			c-2.646,0-4.783,2.144-4.783,4.805c0,2.223,1.589,4.037,3.69,4.543c-1.291,1.576-3.16,2.637-5.343,2.637
			c-5.169,0-9.377-4.208-9.377-9.378c0-3.3,1.285-6.394,3.617-8.731c2.332-2.314,5.432-3.605,8.729-3.605
			c8.854,0,16.063,7.197,16.063,16.052c0,9.548-4.491,20.685-17.147,20.685c-1.379,0-2.494,1.127-2.494,2.496
			c0,1.371,1.114,2.491,2.494,2.491h22.408l-5.023,7.41c-0.518,0.768-0.576,1.735-0.137,2.569c0.435,0.816,1.282,1.328,2.204,1.328
			h2.533c-0.037,0.292-0.167,0.548-0.167,0.852c0,3.697,2.986,6.662,6.671,6.662c3.684,0,6.667-2.99,6.667-6.662
			c0-0.304-0.128-0.56-0.164-0.852h3.154c0.043,0,0.091,0,0.128,0c1.376,0,2.496-1.139,2.496-2.479c0-0.779-0.359-1.474-0.913-1.942
			l-4.664-6.887h21.787c1.376,0,2.496-1.133,2.496-2.491c0-1.382-1.126-2.496-2.496-2.496c-12.653,0-17.147-11.137-17.147-20.685
			c0-8.854,7.21-16.052,16.063-16.052c6.808,0,12.343,5.541,12.343,12.337c0,5.176-4.202,9.378-9.378,9.378
			c-2.174,0-4.024-1.048-5.327-2.595c2.174-0.462,3.836-2.289,3.836-4.573c0-2.66-2.144-4.804-4.786-4.804
			c-1.888,0-3.471,1.12-4.25,2.722c-0.871,0.384-1.474,1.236-1.474,2.247c0,6.625,5.383,11.995,11.995,11.995
			c7.929,0,14.37-6.424,14.37-14.37c0-1.942-0.39-3.781-0.998-5.554c3.873,1.863,8.099,3.143,12.604,3.617
			c1.668,0.171,3.312,0.256,4.956,0.256c10.766,0,21.13-3.666,29.605-10.546c9.768-7.938,15.869-19.202,17.172-31.725
			c0.049-0.46-0.073-0.893-0.268-1.291c3.507,0.67,7.745,0.999,10.132-5.517c1.023-2.826-0.17-6.175,6.759-12.09
			C249.424,75.17,244.139,73.125,238.512,75.974z M114.431,75.143c-2.664,4.847-4.296,11.606-4.296,19.205
			c0,7.603,1.632,14.361,4.296,19.205c-6.866-3.702-11.597-10.875-11.597-19.205C102.822,86.006,107.559,78.836,114.431,75.143z
			 M122.225,162.425h-12.036c5.151-4.482,8.181-11.729,8.181-20.691c0-11.588-9.438-21.053-21.044-21.053
			c-0.792,0-1.559,0.131-2.332,0.231c2.975-3.974,5.176-8.525,6.424-13.418c2.731,4.832,6.851,8.717,11.883,11.104
			c-0.085,0.624-0.037,1.228,0.319,1.751l7.265,10.729c0.365,0.536,0.858,0.908,1.333,1.255L122.225,162.425L122.225,162.425z
			 M122.225,73.892v41.409c-3.718-2.545-7.109-10.388-7.109-20.935c0-10.656,3.462-18.56,7.222-21.005
			C122.286,73.523,122.225,73.691,122.225,73.892z M146.615,94.348c0,8.33-4.737,15.503-11.605,19.205
			c2.673-4.844,4.299-11.603,4.299-19.205c0-7.599-1.632-14.358-4.299-19.205C141.866,78.836,146.615,86.006,146.615,94.348z
			 M134.315,94.348c0,10.547-3.386,18.39-7.112,20.935V73.886c0-0.195-0.061-0.38-0.109-0.576
			C130.856,75.789,134.315,83.692,134.315,94.348z M152.12,120.675c-11.6,0-21.044,9.465-21.044,21.059
			c0,8.963,3.02,16.222,8.178,20.686h-11.947c-0.024-0.013-0.061-0.013-0.092-0.025v-29.55c0.756-0.39,1.432-0.987,1.961-1.767
			l7.259-10.734c0.42-0.609,0.45-1.352,0.256-2.056c4.786-2.402,8.707-6.15,11.338-10.787c1.254,4.893,3.458,9.45,6.43,13.417
			C153.678,120.812,152.899,120.675,152.12,120.675z"/>
	</g>
</g>
</svg>